PathFileType	4	(X/Y/Z)	C:/Users/opensim2020/Desktop/walking_exp_matlab/subject01_walking09_straight_02.trc	
DataRate	CameraRate	NumFrames	NumMarkers	Units	OrigDataRate	OrigDataStartFrame	OrigNumFrames	
100.00	100.00	8	43	mm	100.00	2162	362	
Frame#	Time	LFHD			RFHD			LBHD			RBHD			C7			T10			CLAV			STRN			RBAK			LSHO			LUPA			LELB			LFRM			LWRA			LWRB			LFIN			RSHO			RUPA			RELB			RFRM			RWRA			RWRB			RFIN			LASI			RASI			LPSI			RPSI			LTHI			LKNE			LTIB			LANK			LHEE			LTOE			RTHI			RKNE			RTIB			RANK			RHEE			RTOE			*39			*40			*41			*42			
		X1	Y1	Z1	X2	Y2	Z2	X3	Y3	Z3	X4	Y4	Z4	X5	Y5	Z5	X6	Y6	Z6	X7	Y7	Z7	X8	Y8	Z8	X9	Y9	Z9	X10	Y10	Z10	X11	Y11	Z11	X12	Y12	Z12	X13	Y13	Z13	X14	Y14	Z14	X15	Y15	Z15	X16	Y16	Z16	X17	Y17	Z17	X18	Y18	Z18	X19	Y19	Z19	X20	Y20	Z20	X21	Y21	Z21	X22	Y22	Z22	X23	Y23	Z23	X24	Y24	Z24	X25	Y25	Z25	X26	Y26	Z26	X27	Y27	Z27	X28	Y28	Z28	X29	Y29	Z29	X30	Y30	Z30	X31	Y31	Z31	X32	Y32	Z32	X33	Y33	Z33	X34	Y34	Z34	X35	Y35	Z35	X36	Y36	Z36	X37	Y37	Z37	X38	Y38	Z38	X39	Y39	Z39	X40	Y40	Z40	X41	Y41	Z41	X42	Y42	Z42	X43	Y43	Z43	

272	2.710	1541.29761	-566.75116	1658.96533	1429.21118	-587.80121	1660.48840	1526.67383	-444.83170	1637.15930	1406.87549	-463.82263	1638.67542	1486.06396	-382.65207	1432.97522	1470.30493	-350.18277	1137.30811	1484.27515	-525.59418	1364.27478	1486.24902	-570.97089	1211.22278	1402.08374	-329.15723	1237.43079	1645.89368	-465.52942	1393.33411	1728.41663	-444.24484	1206.68140	1724.52661	-436.91641	1054.73792	1739.87415	-486.84494	950.58649	1709.74976	-575.55078	845.99695	1737.06592	-522.57306	834.47852	1744.93652	-578.35852	772.03265	1332.97290	-462.53430	1395.76257	1227.52014	-412.06628	1195.32129	1224.57446	-417.69131	1069.83118	1196.07104	-454.60416	954.30652	1220.66370	-540.97742	843.48743	1178.67676	-501.86200	841.72913	1181.79248	-544.92206	768.37524	1577.48853	-530.34210	932.07306	1359.25317	-528.42773	935.29291	1525.48206	-343.11215	942.03290	1379.51758	-344.69836	943.72260	1618.44653	-519.78625	597.86041	1595.34448	-519.31079	464.51428	1599.92017	-466.38202	281.39679	1547.29431	-428.44330	67.91747	1495.24768	-379.84454	39.28588	1550.42102	-573.43561	32.15434	1291.57483	-543.67108	606.73053	1308.62292	-573.27295	452.53333	1312.27063	-434.16022	346.38770	1362.71826	-295.38345	197.07820	1420.44373	-240.05916	193.78134	1349.78796	-365.41202	74.60564	1451.16260	-581.13776	1695.75122	-3101.95288	1973.00500	1023.49774	-3140.74341	2012.52771	1021.99774			 
273	2.720	1541.11780	-574.13245	1658.87268	1428.91675	-594.89795	1660.21716	1526.77551	-452.19803	1637.34497	1406.96533	-470.84891	1638.70935	1486.55115	-389.49817	1433.16846	1471.29407	-356.46411	1137.62097	1484.48840	-532.28271	1364.20508	1486.72656	-577.33588	1211.09302	1402.99390	-335.41260	1237.65552	1646.23364	-472.65967	1393.59766	1729.08655	-452.21906	1207.04871	1725.72058	-445.66391	1055.12183	1740.86719	-496.60019	951.30951	1710.61853	-586.24768	847.53918	1737.95728	-533.45117	835.52740	1745.75220	-589.86743	773.57141	1333.29163	-469.02112	1395.66077	1228.38452	-417.44003	1195.15662	1225.21741	-423.13489	1069.67798	1196.80139	-459.37750	954.17688	1221.11755	-545.81580	843.28491	1179.14111	-506.23630	841.29041	1182.38989	-549.00153	767.74774	1578.32336	-536.16846	931.89612	1360.20496	-534.40436	935.91052	1525.98364	-348.96542	941.99219	1379.98047	-350.59967	943.95465	1618.75854	-523.43262	597.28381	1595.58569	-522.01648	463.97269	1599.89917	-467.95325	281.14096	1547.09753	-428.40536	68.16869	1495.18005	-379.85272	39.38709	1550.41785	-573.51373	32.12226	1292.14941	-553.57269	608.42468	1309.52393	-585.56165	454.69620	1313.02332	-449.16080	344.79575	1363.41748	-314.63812	191.15309	1420.97314	-258.94797	185.51668	1350.10522	-389.47977	72.27345	1450.91479	-588.43219	1695.57385	-3101.97852	1973.05957	1023.84503	-3140.78125	2012.57788	1022.08490			 
274	2.730	1540.85779	-581.57013	1658.78027	1428.61963	-602.08038	1659.97046	1526.82874	-459.54480	1637.50574	1406.70020	-478.04788	1638.71936	1486.97656	-396.32642	1433.34717	1472.23071	-362.72601	1137.85693	1484.69983	-539.04895	1364.11743	1487.15613	-583.72314	1210.96533	1403.81714	-341.72556	1237.79797	1646.51086	-479.82813	1393.80835	1729.60083	-460.09991	1207.35913	1726.81946	-454.38568	1055.35620	1741.90173	-506.37814	952.06506	1711.46240	-597.06311	849.21802	1738.87463	-544.45410	836.59619	1746.46252	-601.41040	775.18158	1333.60852	-475.34460	1395.51367	1229.14417	-422.87189	1194.97498	1225.96497	-428.24643	1069.53479	1197.51160	-464.12497	953.87537	1221.57837	-550.20258	842.67200	1179.87268	-510.68912	840.91376	1182.92432	-553.37451	767.24146	1579.03442	-541.94586	931.54553	1361.02161	-540.34338	936.39581	1526.49402	-354.82925	941.92310	1380.35327	-356.70435	943.97089	1619.12720	-526.98871	596.68665	1595.78662	-524.75262	463.36798	1599.83948	-469.78369	280.91818	1547.10706	-428.68192	67.99093	1495.11865	-379.87952	39.56561	1550.39221	-573.50037	32.13034	1292.58594	-563.32587	610.06293	1310.40283	-597.45245	456.68359	1313.62415	-464.22382	342.42401	1364.01428	-334.33606	184.76216	1422.09119	-278.06488	177.62695	1349.93604	-414.46750	69.78036	1450.57800	-595.70599	1695.34094	-3101.89575	1973.27051	1023.25311	-3140.78296	2012.51550	1022.09491			 
275	2.740	1540.59412	-588.94922	1658.67822	1428.21729	-609.18658	1659.65686	1526.85901	-466.84323	1637.61780	1406.97668	-484.93817	1638.64807	1487.34241	-403.16846	1433.46570	1473.10059	-368.97076	1138.04529	1484.85840	-545.69702	1364.07544	1487.56311	-590.10388	1210.71643	1404.64722	-348.05832	1237.90869	1646.74426	-486.91248	1394.00024	1730.12561	-468.01355	1207.70593	1727.87378	-463.05432	1055.63879	1742.80762	-516.10754	952.75250	1712.12842	-607.80756	850.89215	1739.66650	-555.41223	837.72577	1747.08508	-613.04517	776.83533	1333.86694	-481.92493	1395.28870	1229.86414	-428.45126	1194.73108	1226.69592	-433.41309	1069.31677	1198.15247	-468.94290	953.58685	1221.93994	-555.06989	842.36249	1180.58350	-515.40991	840.59198	1183.38232	-557.71655	766.71741	1579.69592	-547.76373	931.20526	1361.78931	-546.38452	936.83441	1526.94568	-360.64221	941.80859	1380.78394	-362.70813	944.08661	1619.39136	-530.61639	596.13239	1596.01660	-527.45325	462.78027	1599.81543	-471.79889	280.61063	1547.02710	-428.80432	68.04764	1495.05469	-379.98874	39.68714	1550.44153	-573.38757	32.15159	1293.10461	-572.95349	611.72705	1311.41150	-608.79089	458.43640	1314.15625	-479.44064	339.34290	1364.64331	-354.83417	177.66521	1422.79089	-299.03244	167.49812	1349.51538	-440.01401	67.30714	1450.17676	-602.97064	1695.06519	-3101.98730	1973.12610	1023.43457	-3140.68579	2012.46167	1022.00757			 
276	2.750	1540.18713	-596.38495	1658.46643	1427.78528	-616.30469	1659.27637	1526.80420	-474.15091	1637.68555	1406.59790	-492.09351	1638.55554	1487.69275	-410.05014	1433.65393	1473.97034	-375.23676	1138.22656	1484.96448	-552.41681	1363.82544	1487.94995	-596.50427	1210.44812	1405.38904	-354.46893	1237.94128	1646.87109	-493.99142	1394.15271	1730.66638	-475.93527	1207.97351	1728.92395	-471.74597	1055.95459	1743.68152	-525.99274	953.48816	1712.69910	-618.55872	852.56885	1740.41089	-566.44946	838.88818	1747.62622	-624.80560	778.70477	1334.09143	-488.39505	1395.04443	1230.45935	-434.06232	1194.52087	1227.43567	-438.60828	1069.05920	1198.73511	-473.86328	953.18549	1222.37439	-559.68335	841.80920	1181.05688	-519.95941	840.03674	1183.74329	-562.04126	766.14441	1580.29321	-553.58893	930.84460	1362.41565	-552.40826	937.11371	1527.30298	-366.49255	941.62775	1381.12158	-368.76160	943.98718	1619.67102	-534.21509	595.54254	1596.17114	-530.15442	462.10632	1599.69482	-473.72479	280.23947	1546.78064	-428.83084	68.20578	1495.05127	-379.84119	40.05556	1550.41272	-573.33423	32.19680	1293.58264	-582.26715	613.16028	1312.27881	-619.89227	459.96707	1314.67969	-494.87546	335.80310	1365.41797	-375.61804	170.29991	1423.61707	-320.35007	157.24626	1348.91223	-466.04324	64.56674	1449.71191	-610.19470	1694.74988	-3101.81543	1973.16455	1023.34625	-3140.68994	2012.52600	1021.93976			 
277	2.760	1539.77283	-603.72150	1658.30310	1427.35693	-623.44299	1658.93689	1526.71533	-481.45557	1637.70386	1406.73975	-499.03198	1638.35291	1487.84949	-416.93524	1433.56567	1474.72388	-381.54782	1138.33838	1485.10327	-559.14874	1363.65527	1488.27002	-602.95428	1210.14563	1406.03137	-360.93710	1237.92859	1646.96777	-501.07022	1394.25916	1731.13940	-483.78091	1208.30688	1729.85498	-480.43509	1056.16589	1744.44019	-535.79913	954.27032	1713.15405	-629.42389	854.36566	1741.07007	-577.54199	840.12207	1748.03760	-636.57684	780.51282	1334.34753	-494.92169	1394.61792	1230.99487	-439.83041	1194.23596	1227.87964	-443.59827	1068.83435	1199.26538	-478.81488	952.84076	1222.71326	-564.48260	841.25732	1181.55957	-523.97827	839.38861	1184.11523	-566.43945	765.62311	1580.49927	-558.95874	930.37231	1362.99011	-558.60449	937.28851	1527.65955	-372.35849	941.49554	1381.44971	-374.80713	944.00244	1619.84888	-537.86548	594.89136	1596.31799	-532.81464	461.46567	1599.63013	-475.47992	279.93008	1546.65210	-428.95651	68.30776	1494.92419	-379.87070	40.21603	1550.35864	-573.32117	32.29239	1294.02881	-591.26288	614.41467	1313.23560	-630.66193	461.29727	1315.16895	-510.38000	331.89130	1365.78320	-397.36646	162.33348	1424.26477	-342.48227	146.60660	1348.28198	-492.68106	61.87448	1449.21460	-617.46069	1694.44873	-3101.90698	1973.17737	1023.38013	-3140.62598	2012.45386	1022.02777			 
278	2.770	1539.29272	-611.13605	1658.05188	1426.77991	-630.60773	1658.46545	1526.57495	-488.83054	1637.75342	1406.56360	-506.03967	1638.20093	1487.98462	-423.84512	1433.55603	1475.42786	-387.86575	1138.40186	1485.09302	-565.87280	1363.25842	1488.49255	-609.47058	1209.82898	1406.63818	-367.39993	1237.86523	1647.01904	-508.13541	1394.36646	1731.57092	-491.58377	1208.59961	1730.74756	-488.99719	1056.40662	1745.13806	-545.62823	955.06061	1713.45386	-640.23792	856.20874	1741.61072	-588.72412	841.38129	1748.50903	-648.37701	782.59332	1334.37939	-501.75073	1394.44800	1231.38855	-445.72183	1193.90320	1228.34656	-448.93842	1068.55078	1199.70105	-483.79993	952.37042	1223.09204	-568.89160	840.45892	1182.07751	-528.47650	838.73083	1184.38208	-570.86487	764.95825	1581.14636	-565.36755	930.27069	1363.54248	-564.77301	937.39069	1527.92017	-378.32129	941.27869	1381.91370	-380.73270	944.21014	1620.03259	-541.54156	594.30176	1596.41663	-535.54846	460.85202	1599.54968	-477.07095	279.67682	1546.71814	-429.21863	68.30055	1494.77356	-379.86829	40.34788	1550.33398	-573.19586	32.21064	1294.62488	-599.75537	615.65247	1314.07739	-640.85577	462.63092	1315.51172	-525.69489	327.70920	1366.28345	-419.34164	154.30692	1424.59839	-365.59616	135.67027	1347.90637	-519.62433	59.03615	1448.65698	-624.67920	1694.06396	-3101.90698	1973.21899	1023.40094	-3140.68750	2012.60120	1022.01630			 
279	2.780	1538.79150	-618.51416	1657.75818	1426.22961	-637.72229	1658.04285	1526.39978	-496.14633	1637.69299	1406.04224	-513.23926	1637.99353	1488.14392	-430.76425	1433.60571	1475.92725	-394.30267	1138.41260	1485.19946	-572.86847	1363.24500	1488.60693	-615.92737	1209.36560	1407.18677	-373.92075	1237.73975	1647.00793	-515.22485	1394.44604	1732.06213	-499.39175	1208.89966	1731.61987	-497.51657	1056.58569	1745.73120	-555.48706	955.80988	1713.85486	-651.15930	858.28473	1742.05139	-599.86810	842.71600	1748.77625	-660.21814	784.66943	1334.53235	-508.20337	1394.01550	1231.67004	-451.75955	1193.49768	1228.53516	-454.46313	1068.23572	1200.14087	-488.73877	951.96271	1223.39404	-573.53235	839.66174	1183.14392	-532.08032	838.05212	1184.59570	-575.19543	764.25885	1581.71338	-571.47498	929.95319	1364.05566	-571.04144	937.48395	1528.16150	-384.20316	941.04987	1382.22229	-386.85110	944.11646	1620.19409	-545.21637	593.65558	1596.55615	-538.14136	460.16522	1599.57654	-478.49765	279.46664	1546.59143	-429.33328	68.34406	1494.64185	-379.86914	40.37179	1550.27185	-573.14246	32.18086	1294.93213	-608.37262	616.97174	1314.80542	-650.54443	463.53665	1315.90039	-541.24036	323.57925	1366.67224	-441.95056	146.09520	1425.27051	-388.78500	125.45969	1347.58838	-546.73096	55.97230	1448.09497	-631.86743	1693.61609	-3101.89502	1973.07422	1023.48669	-3140.73169	2012.53577	1022.12158			 
